<?xml version="1.0" encoding="UTF-8"?>
<svg xmlns="http://www.w3.org/2000/svg" version="1.1" viewBox="0 0 359.05 148.83">
  <!-- Generator: Adobe Illustrator 29.5.0, SVG Export Plug-In . SVG Version: 2.1.0 Build 137)  -->
  <defs>
    <style>
      .st0, .st1, .st2, .st3 {
        fill: none;
        stroke-linecap: round;
        stroke-linejoin: round;
      }

      .st0, .st3 {
        stroke: #ff0;
      }

      .st4 {
        font-size: 1.49px;
      }

      .st4, .st5 {
        font-family: KozGoPr6N-Regular-83pv-RKSJ-H, 'Kozuka Gothic Pr6N';
      }

      .st1 {
        stroke: blue;
      }

      .st2 {
        stroke: #000;
      }

      .st5 {
        font-size: 3.81px;
      }

      .st3 {
        stroke-width: .99px;
      }

      .st6 {
        fill: blue;
        fill-rule: evenodd;
      }
    </style>
  </defs>
  <g id="_枠" data-name="枠">
    <g id="TEXT">
      <text class="st4" transform="translate(-1278.18 805.59)"><tspan x="0" y="0">!gentitle-ll</tspan></text>
    </g>
    <g id="TEXT1" data-name="TEXT">
      <text class="st4" transform="translate(-1059.09 802.95)"><tspan x="0" y="0">!gentitle-insert</tspan></text>
    </g>
    <g id="TEXT2" data-name="TEXT">
      <text class="st4" transform="translate(-1056.46 648.99)"><tspan x="0" y="0">!gentitle-max</tspan></text>
    </g>
    <g id="TEXT3" data-name="TEXT">
      <text class="st4" transform="translate(-1059.09 651.62)"><tspan x="0" y="0">!gentitle-ru</tspan></text>
    </g>
  </g>
  <g id="_x30_">
    <g id="POINT">
      <line class="st3" x1="-706.25" y1="427.24" x2="-706.25" y2="427.24"/>
    </g>
    <g id="POINT1" data-name="POINT">
      <line class="st3" x1="-2241.34" y1="412.68" x2="-2241.34" y2="412.68"/>
    </g>
    <g id="POINT2" data-name="POINT">
      <line class="st3" x1="-2241.34" y1="412.68" x2="-2241.34" y2="412.68"/>
    </g>
    <g id="POINT3" data-name="POINT">
      <line class="st3" x1="-2241.34" y1="412.68" x2="-2241.34" y2="412.68"/>
    </g>
    <g id="POINT4" data-name="POINT">
      <line class="st3" x1="-2241.34" y1="412.68" x2="-2241.34" y2="412.68"/>
    </g>
    <g id="POINT5" data-name="POINT">
      <line class="st3" x1="-2241.34" y1="412.68" x2="-2241.34" y2="412.68"/>
    </g>
    <g id="POINT6" data-name="POINT">
      <line class="st3" x1="143.54" y1="625.02" x2="143.54" y2="625.02"/>
    </g>
    <g id="POINT7" data-name="POINT">
      <line class="st3" x1="143.54" y1="625.02" x2="143.54" y2="625.02"/>
    </g>
    <g id="POINT8" data-name="POINT">
      <line class="st3" x1="143.54" y1="625.02" x2="143.54" y2="625.02"/>
    </g>
    <g id="POINT9" data-name="POINT">
      <line class="st3" x1="143.54" y1="625.02" x2="143.54" y2="625.02"/>
    </g>
    <g id="POINT10" data-name="POINT">
      <line class="st3" x1="143.54" y1="625.02" x2="143.54" y2="625.02"/>
    </g>
    <g id="POINT11" data-name="POINT">
      <line class="st3" x1="143.54" y1="625.02" x2="143.54" y2="625.02"/>
    </g>
    <g id="POINT12" data-name="POINT">
      <line class="st3" x1="-1199.81" y1="387.35" x2="-1199.81" y2="387.35"/>
    </g>
    <g id="POINT13" data-name="POINT">
      <line class="st3" x1="-1199.81" y1="387.35" x2="-1199.81" y2="387.35"/>
    </g>
    <g id="POINT14" data-name="POINT">
      <line class="st3" x1="-1199.81" y1="387.35" x2="-1199.81" y2="387.35"/>
    </g>
    <g id="POINT15" data-name="POINT">
      <line class="st3" x1="-1199.81" y1="387.35" x2="-1199.81" y2="387.35"/>
    </g>
    <g id="POINT16" data-name="POINT">
      <line class="st3" x1="-1199.81" y1="387.35" x2="-1199.81" y2="387.35"/>
    </g>
    <g id="POINT17" data-name="POINT">
      <line class="st3" x1="-1199.81" y1="387.35" x2="-1199.81" y2="387.35"/>
    </g>
    <g id="POINT18" data-name="POINT">
      <line class="st3" x1="-1199.81" y1="387.35" x2="-1199.81" y2="387.35"/>
    </g>
    <g id="POINT19" data-name="POINT">
      <line class="st3" x1="-1447.51" y1="163.72" x2="-1447.51" y2="163.72"/>
    </g>
    <g id="POINT20" data-name="POINT">
      <line class="st3" x1="-1447.51" y1="163.72" x2="-1447.51" y2="163.72"/>
    </g>
    <g id="POINT21" data-name="POINT">
      <line class="st3" x1="-1447.51" y1="163.72" x2="-1447.51" y2="163.72"/>
    </g>
    <g id="POINT22" data-name="POINT">
      <line class="st3" x1="-1447.51" y1="163.72" x2="-1447.51" y2="163.72"/>
    </g>
    <g id="POINT23" data-name="POINT">
      <line class="st3" x1="-1447.51" y1="163.72" x2="-1447.51" y2="163.72"/>
    </g>
    <g id="POINT24" data-name="POINT">
      <line class="st3" x1="1134.94" y1="390.05" x2="1134.94" y2="390.05"/>
    </g>
    <g id="POINT25" data-name="POINT">
      <line class="st3" x1="1134.94" y1="390.05" x2="1134.94" y2="390.05"/>
    </g>
    <g id="POINT26" data-name="POINT">
      <line class="st3" x1="1134.94" y1="390.05" x2="1134.94" y2="390.05"/>
    </g>
    <g id="POINT27" data-name="POINT">
      <line class="st3" x1="1134.94" y1="390.05" x2="1134.94" y2="390.05"/>
    </g>
    <g id="POINT28" data-name="POINT">
      <line class="st3" x1="1134.94" y1="390.05" x2="1134.94" y2="390.05"/>
    </g>
    <g id="POINT29" data-name="POINT">
      <line class="st3" x1="1134.94" y1="390.05" x2="1134.94" y2="390.05"/>
    </g>
    <g id="POINT30" data-name="POINT">
      <line class="st3" x1="396.37" y1="390.05" x2="396.37" y2="390.05"/>
    </g>
    <g id="POINT31" data-name="POINT">
      <line class="st3" x1="396.37" y1="390.05" x2="396.37" y2="390.05"/>
    </g>
    <g id="POINT32" data-name="POINT">
      <line class="st3" x1="396.37" y1="390.05" x2="396.37" y2="390.05"/>
    </g>
    <g id="POINT33" data-name="POINT">
      <line class="st3" x1="396.37" y1="390.05" x2="396.37" y2="390.05"/>
    </g>
    <g id="POINT34" data-name="POINT">
      <line class="st3" x1="396.37" y1="390.05" x2="396.37" y2="390.05"/>
    </g>
    <g id="POINT35" data-name="POINT">
      <line class="st3" x1="396.37" y1="390.05" x2="396.37" y2="390.05"/>
    </g>
    <g id="POINT36" data-name="POINT">
      <line class="st3" x1="-2034.58" y1="1316.92" x2="-2034.58" y2="1316.92"/>
    </g>
    <g id="POINT37" data-name="POINT">
      <line class="st3" x1="-2034.58" y1="1316.92" x2="-2034.58" y2="1316.92"/>
    </g>
    <g id="POINT38" data-name="POINT">
      <line class="st3" x1="-2034.58" y1="1316.92" x2="-2034.58" y2="1316.92"/>
    </g>
    <g id="POINT39" data-name="POINT">
      <line class="st3" x1="-2034.58" y1="1316.92" x2="-2034.58" y2="1316.92"/>
    </g>
    <g id="POINT40" data-name="POINT">
      <line class="st3" x1="-2034.58" y1="1316.92" x2="-2034.58" y2="1316.92"/>
    </g>
    <g id="POINT41" data-name="POINT">
      <line class="st3" x1="-2034.58" y1="1316.92" x2="-2034.58" y2="1316.92"/>
    </g>
    <g id="POINT42" data-name="POINT">
      <line class="st3" x1="-2034.58" y1="1316.92" x2="-2034.58" y2="1316.92"/>
    </g>
    <g id="POINT43" data-name="POINT">
      <line class="st3" x1="-2034.58" y1="1316.92" x2="-2034.58" y2="1316.92"/>
    </g>
  </g>
  <g id="_実線" data-name="実線">
    <g id="XLINE">
      <line class="st0" x1="3022.77" y1="25163.01" x2="3022.77" y2="-23988.99"/>
    </g>
    <g id="LINE">
      <line class="st0" x1="819.43" y1="184.81" x2="1062.19" y2="184.81"/>
    </g>
    <g id="LINE1" data-name="LINE">
      <line class="st0" x1="818.63" y1="190.08" x2="833.18" y2="190.08"/>
    </g>
    <g id="LINE2" data-name="LINE">
      <line class="st0" x1="1008.3" y1="190.08" x2="1037.47" y2="190.08"/>
    </g>
    <g id="LINE3" data-name="LINE">
      <line class="st0" x1="764.81" y1="265.22" x2="848.86" y2="265.22"/>
    </g>
    <g id="LINE4" data-name="LINE">
      <line class="st0" x1="875.96" y1="265.22" x2="912.51" y2="265.22"/>
    </g>
    <g id="LINE5" data-name="LINE">
      <line class="st0" x1="937.84" y1="265.22" x2="1032.16" y2="265.22"/>
    </g>
    <g id="LINE6" data-name="LINE">
      <line class="st0" x1="835.64" y1="193.65" x2="811.14" y2="258.24"/>
    </g>
    <g id="LINE7" data-name="LINE">
      <line class="st0" x1="784.95" y1="259.95" x2="808.68" y2="259.95"/>
    </g>
    <g id="LINE8" data-name="LINE">
      <line class="st0" x1="938.64" y1="259.95" x2="991.97" y2="259.95"/>
    </g>
    <g id="LINE9" data-name="LINE">
      <line class="st0" x1="874.82" y1="201.58" x2="851.32" y2="263.52"/>
    </g>
    <g id="LINE10" data-name="LINE">
      <line class="st0" x1="897.79" y1="197.61" x2="873.5" y2="261.65"/>
    </g>
    <g id="LINE11" data-name="LINE">
      <line class="st0" x1="940.68" y1="195.74" x2="914.97" y2="263.52"/>
    </g>
    <g id="LINE12" data-name="LINE">
      <line class="st0" x1="960.18" y1="200.92" x2="951.4" y2="224.08"/>
    </g>
    <g id="LINE13" data-name="LINE">
      <line class="st0" x1="937.15" y1="260.99" x2="937.15" y2="260.99"/>
    </g>
    <g id="LINE14" data-name="LINE">
      <line class="st0" x1="1005.83" y1="191.78" x2="995.58" y2="218.8"/>
    </g>
    <g id="LINE15" data-name="LINE">
      <line class="st0" x1="953.86" y1="227.65" x2="1002.23" y2="227.65"/>
    </g>
    <g id="LINE16" data-name="LINE">
      <line class="st0" x1="998.05" y1="222.38" x2="1046.41" y2="222.38"/>
    </g>
    <g id="LINE17" data-name="LINE">
      <line class="st0" x1="1063.67" y1="186.95" x2="1059.53" y2="197.86"/>
    </g>
    <g id="LINE18" data-name="LINE">
      <line class="st0" x1="1048.87" y1="225.95" x2="1034.62" y2="263.52"/>
    </g>
    <g id="LINE19" data-name="LINE">
      <line class="st0" x1="1004.69" y1="231.22" x2="994.44" y2="258.24"/>
    </g>
    <g id="LINE20" data-name="LINE">
      <line class="st0" x1="1055.85" y1="199.26" x2="1038.68" y2="190.37"/>
    </g>
    <g id="LINE21" data-name="LINE">
      <line class="st0" x1="762.35" y1="261.65" x2="765.44" y2="253.48"/>
    </g>
    <g id="LINE22" data-name="LINE">
      <line class="st0" x1="769.12" y1="252.08" x2="783.74" y2="259.65"/>
    </g>
    <g id="LINE23" data-name="LINE">
      <line class="st0" x1="888.56" y1="194.03" x2="895.33" y2="194.03"/>
    </g>
    <g id="LINE24" data-name="LINE">
      <line class="st0" x1="943.15" y1="194.03" x2="951.31" y2="194.03"/>
    </g>
    <g id="LINE25" data-name="LINE">
      <line class="st0" x1="958.93" y1="197.65" x2="952.52" y2="194.33"/>
    </g>
    <g id="LINE26" data-name="LINE">
      <line class="st0" x1="876.07" y1="200.17" x2="887.35" y2="194.33"/>
    </g>
    <g id="ARC">
      <path class="st0" d="M848.86,265.22c1.1,0,2.08-.68,2.47-1.7"/>
    </g>
    <g id="ARC1" data-name="ARC">
      <path class="st0" d="M808.68,259.95c1.1,0,2.08-.68,2.47-1.7"/>
    </g>
    <g id="ARC2" data-name="ARC">
      <path class="st0" d="M783.74,259.65c.37.19.79.3,1.21.3"/>
    </g>
    <g id="ARC3" data-name="ARC">
      <path class="st0" d="M769.12,252.08c-1.29-.67-2.88-.16-3.55,1.13-.05.09-.09.18-.12.28"/>
    </g>
    <g id="ARC4" data-name="ARC">
      <path class="st0" d="M762.35,261.65c-.52,1.36.17,2.88,1.53,3.4.3.11.62.17.94.17"/>
    </g>
    <g id="ARC5" data-name="ARC">
      <path class="st0" d="M873.5,261.65c-.52,1.36.17,2.88,1.53,3.4.3.11.62.17.94.17"/>
    </g>
    <g id="ARC6" data-name="ARC">
      <path class="st0" d="M912.51,265.22c1.1,0,2.08-.68,2.47-1.7"/>
    </g>
    <g id="ARC7" data-name="ARC">
      <path class="st0" d="M876.07,200.17c-.58.3-1.02.8-1.25,1.41"/>
    </g>
    <g id="ARC8" data-name="ARC">
      <path class="st0" d="M888.56,194.03c-.42,0-.84.1-1.21.3"/>
    </g>
    <g id="ARC9" data-name="ARC">
      <path class="st0" d="M897.79,197.61c.52-1.36-.17-2.88-1.53-3.4-.3-.11-.62-.17-.94-.17"/>
    </g>
    <g id="ARC10" data-name="ARC">
      <path class="st0" d="M943.15,194.03c-1.1,0-2.08.68-2.47,1.7"/>
    </g>
    <g id="ARC11" data-name="ARC">
      <path class="st0" d="M952.52,194.33c-.37-.19-.79-.3-1.21-.3"/>
    </g>
    <g id="ARC12" data-name="ARC">
      <path class="st0" d="M960.18,200.92c.47-1.25-.06-2.66-1.25-3.28"/>
    </g>
    <g id="ARC13" data-name="ARC">
      <path class="st0" d="M951.4,224.08c-.52,1.36.17,2.88,1.53,3.4.3.11.62.17.94.17"/>
    </g>
    <g id="ARC14" data-name="ARC">
      <path class="st0" d="M1004.69,231.22c.52-1.36-.17-2.88-1.53-3.4-.3-.11-.62-.17-.94-.17"/>
    </g>
    <g id="ARC15" data-name="ARC">
      <path class="st0" d="M991.97,259.95c1.1,0,2.08-.68,2.47-1.7"/>
    </g>
    <g id="ARC16" data-name="ARC">
      <path class="st0" d="M1032.16,265.22c1.1,0,2.08-.68,2.47-1.7"/>
    </g>
    <g id="ARC17" data-name="ARC">
      <path class="st0" d="M1008.3,190.08c-1.1,0-2.08.68-2.47,1.7"/>
    </g>
    <g id="ARC18" data-name="ARC">
      <path class="st0" d="M1055.85,199.26c1.29.67,2.88.16,3.55-1.13.05-.09.09-.18.12-.28"/>
    </g>
    <g id="ARC19" data-name="ARC">
      <path class="st0" d="M835.64,193.65c.52-1.36-.17-2.88-1.53-3.4-.3-.11-.62-.17-.94-.17"/>
    </g>
    <g id="ARC20" data-name="ARC">
      <path class="st0" d="M1063.67,186.95c.31-.82-.1-1.73-.92-2.04-.18-.07-.37-.1-.56-.1"/>
    </g>
    <g id="LINE27" data-name="LINE">
      <line class="st0" x1="817.95" y1="185.83" x2="817.15" y2="187.94"/>
    </g>
    <g id="ARC21" data-name="ARC">
      <path class="st0" d="M995.58,218.8c-.52,1.36.17,2.88,1.53,3.4.3.11.62.17.94.17"/>
    </g>
    <g id="ARC22" data-name="ARC">
      <path class="st0" d="M1048.87,225.95c.52-1.36-.17-2.88-1.53-3.4-.3-.11-.62-.17-.94-.17"/>
    </g>
    <g id="ARC23" data-name="ARC">
      <path class="st0" d="M819.43,184.81c-.66,0-1.25.41-1.48,1.02"/>
    </g>
    <g id="ARC24" data-name="ARC">
      <path class="st0" d="M817.15,187.94c-.31.82.1,1.73.92,2.04.18.07.37.1.56.1"/>
    </g>
    <g id="ARC25" data-name="ARC">
      <path class="st0" d="M1038.68,190.37c-.37-.19-.79-.3-1.21-.3"/>
    </g>
    <g id="LINE28" data-name="LINE">
      <line class="st0" x1="937.16" y1="260.97" x2="936.36" y2="263.08"/>
    </g>
    <g id="ARC26" data-name="ARC">
      <path class="st0" d="M938.64,259.95c-.66,0-1.25.41-1.48,1.02"/>
    </g>
    <g id="ARC27" data-name="ARC">
      <path class="st0" d="M936.36,263.08c-.31.82.1,1.73.92,2.04.18.07.37.1.56.1"/>
    </g>
    <g id="LINE29" data-name="LINE">
      <line class="st1" x1="822.01" y1="31.93" x2="1064.76" y2="31.93"/>
    </g>
    <g id="LINE30" data-name="LINE">
      <line class="st1" x1="821.21" y1="37.21" x2="835.76" y2="37.21"/>
    </g>
    <g id="ARC28" data-name="ARC">
      <path class="st1" d="M819.73,35.06c-.31.82.1,1.73.92,2.04.18.07.37.1.56.1"/>
    </g>
    <g id="ARC29" data-name="ARC">
      <path class="st1" d="M838.22,40.78c.52-1.36-.17-2.88-1.53-3.4-.3-.11-.62-.17-.94-.17"/>
    </g>
    <g id="LINE31" data-name="LINE">
      <line class="st1" x1="1010.87" y1="37.21" x2="1040.05" y2="37.21"/>
    </g>
    <g id="LINE32" data-name="LINE">
      <line class="st1" x1="767.39" y1="112.34" x2="851.44" y2="112.34"/>
    </g>
    <g id="ARC30" data-name="ARC">
      <path class="st1" d="M764.92,108.77c-.52,1.36.17,2.88,1.53,3.4.3.11.62.17.94.17"/>
    </g>
    <g id="ARC31" data-name="ARC">
      <path class="st1" d="M851.44,112.34c1.1,0,2.08-.68,2.47-1.7"/>
    </g>
    <g id="LINE33" data-name="LINE">
      <line class="st1" x1="878.54" y1="112.34" x2="915.09" y2="112.34"/>
    </g>
    <g id="ARC32" data-name="ARC">
      <path class="st1" d="M915.09,112.34c1.1,0,2.08-.68,2.47-1.7"/>
    </g>
    <g id="ARC33" data-name="ARC">
      <path class="st1" d="M876.08,108.77c-.52,1.36.17,2.88,1.53,3.4.3.11.62.17.94.17"/>
    </g>
    <g id="LINE34" data-name="LINE">
      <line class="st1" x1="940.41" y1="112.34" x2="1034.74" y2="112.34"/>
    </g>
    <g id="LINE35" data-name="LINE">
      <line class="st1" x1="838.22" y1="40.78" x2="813.72" y2="105.37"/>
    </g>
    <g id="LINE36" data-name="LINE">
      <line class="st1" x1="787.53" y1="107.07" x2="811.25" y2="107.07"/>
    </g>
    <g id="ARC34" data-name="ARC">
      <path class="st1" d="M811.25,107.07c1.1,0,2.08-.68,2.47-1.7"/>
    </g>
    <g id="LINE37" data-name="LINE">
      <line class="st1" x1="941.21" y1="107.07" x2="994.55" y2="107.07"/>
    </g>
    <g id="LINE38" data-name="LINE">
      <line class="st1" x1="877.4" y1="48.7" x2="853.9" y2="110.64"/>
    </g>
    <g id="ARC35" data-name="ARC">
      <path class="st1" d="M878.65,47.3c-.58.3-1.02.8-1.25,1.41"/>
    </g>
    <g id="LINE39" data-name="LINE">
      <line class="st1" x1="907.31" y1="42.1" x2="883.02" y2="106.14"/>
    </g>
    <g id="ARC36" data-name="ARC">
      <path class="st1" d="M900.37,44.73c.52-1.36-.17-2.88-1.53-3.4-.3-.11-.62-.17-.94-.17"/>
    </g>
    <g id="LINE40" data-name="LINE">
      <line class="st1" x1="950.21" y1="40.23" x2="924.5" y2="108.01"/>
    </g>
    <g id="ARC37" data-name="ARC">
      <path class="st1" d="M945.73,41.16c-1.1,0-2.08.68-2.47,1.7"/>
    </g>
    <g id="LINE41" data-name="LINE">
      <line class="st1" x1="962.76" y1="48.05" x2="953.98" y2="71.2"/>
    </g>
    <g id="ARC38" data-name="ARC">
      <path class="st1" d="M962.76,48.05c.47-1.25-.06-2.66-1.25-3.28"/>
    </g>
    <g id="LINE42" data-name="LINE">
      <line class="st1" x1="939.73" y1="108.12" x2="939.73" y2="108.12"/>
    </g>
    <g id="LINE43" data-name="LINE">
      <line class="st1" x1="1008.41" y1="38.91" x2="998.16" y2="65.93"/>
    </g>
    <g id="ARC39" data-name="ARC">
      <path class="st1" d="M998.16,65.93c-.52,1.36.17,2.88,1.53,3.4.3.11.62.17.94.17"/>
    </g>
    <g id="ARC40" data-name="ARC">
      <path class="st1" d="M1010.87,37.21c-1.1,0-2.08.68-2.47,1.7"/>
    </g>
    <g id="LINE44" data-name="LINE">
      <line class="st1" x1="956.44" y1="74.78" x2="1004.8" y2="74.78"/>
    </g>
    <g id="ARC41" data-name="ARC">
      <path class="st1" d="M953.98,71.2c-.52,1.36.17,2.88,1.53,3.4.3.11.62.17.94.17"/>
    </g>
    <g id="LINE45" data-name="LINE">
      <line class="st1" x1="1000.62" y1="69.5" x2="1048.99" y2="69.5"/>
    </g>
    <g id="LINE46" data-name="LINE">
      <line class="st1" x1="1066.24" y1="34.08" x2="1062.11" y2="44.98"/>
    </g>
    <g id="ARC42" data-name="ARC">
      <path class="st1" d="M1066.24,34.08c.31-.82-.1-1.73-.92-2.04-.18-.07-.37-.1-.56-.1"/>
    </g>
    <g id="LINE47" data-name="LINE">
      <line class="st1" x1="1051.45" y1="73.07" x2="1037.2" y2="110.64"/>
    </g>
    <g id="ARC43" data-name="ARC">
      <path class="st1" d="M1051.45,73.07c.52-1.36-.17-2.88-1.53-3.4-.3-.11-.62-.17-.94-.17"/>
    </g>
    <g id="ARC44" data-name="ARC">
      <path class="st1" d="M1034.74,112.34c1.1,0,2.08-.68,2.47-1.7"/>
    </g>
    <g id="LINE48" data-name="LINE">
      <line class="st1" x1="1007.27" y1="78.35" x2="997.02" y2="105.37"/>
    </g>
    <g id="ARC45" data-name="ARC">
      <path class="st1" d="M994.55,107.07c1.1,0,2.08-.68,2.47-1.7"/>
    </g>
    <g id="ARC46" data-name="ARC">
      <path class="st1" d="M1007.27,78.35c.52-1.36-.17-2.88-1.53-3.4-.3-.11-.62-.17-.94-.17"/>
    </g>
    <g id="LINE49" data-name="LINE">
      <line class="st1" x1="1058.43" y1="46.39" x2="1041.26" y2="37.5"/>
    </g>
    <g id="ARC47" data-name="ARC">
      <path class="st1" d="M1041.26,37.5c-.37-.19-.79-.3-1.21-.3"/>
    </g>
    <g id="ARC48" data-name="ARC">
      <path class="st1" d="M1058.43,46.39c1.29.67,2.88.16,3.55-1.13.05-.09.09-.18.12-.28"/>
    </g>
    <g id="LINE50" data-name="LINE">
      <line class="st1" x1="764.92" y1="108.77" x2="768.02" y2="100.61"/>
    </g>
    <g id="ARC49" data-name="ARC">
      <path class="st1" d="M771.7,99.21c-1.29-.67-2.88-.16-3.55,1.13-.05.09-.09.18-.12.28"/>
    </g>
    <g id="LINE51" data-name="LINE">
      <line class="st1" x1="771.7" y1="99.21" x2="786.32" y2="106.78"/>
    </g>
    <g id="ARC50" data-name="ARC">
      <path class="st1" d="M786.32,106.78c.37.19.79.3,1.21.3"/>
    </g>
    <g id="LINE52" data-name="LINE">
      <line class="st1" x1="891.14" y1="41.16" x2="897.9" y2="41.16"/>
    </g>
    <g id="LINE53" data-name="LINE">
      <line class="st1" x1="945.73" y1="41.16" x2="953.89" y2="41.16"/>
    </g>
    <g id="LINE54" data-name="LINE">
      <line class="st1" x1="961.51" y1="44.77" x2="955.1" y2="41.46"/>
    </g>
    <g id="ARC51" data-name="ARC">
      <path class="st1" d="M955.1,41.46c-.37-.19-.79-.3-1.21-.3"/>
    </g>
    <g id="LINE55" data-name="LINE">
      <line class="st1" x1="878.65" y1="47.3" x2="889.93" y2="41.46"/>
    </g>
    <g id="ARC52" data-name="ARC">
      <path class="st1" d="M891.14,41.16c-.42,0-.84.1-1.21.3"/>
    </g>
    <g id="LINE56" data-name="LINE">
      <line class="st1" x1="820.53" y1="32.95" x2="819.73" y2="35.06"/>
    </g>
    <g id="ARC53" data-name="ARC">
      <path class="st1" d="M822.01,31.93c-.66,0-1.25.41-1.48,1.02"/>
    </g>
    <g id="LINE57" data-name="LINE">
      <line class="st1" x1="939.74" y1="108.09" x2="938.94" y2="110.2"/>
    </g>
    <g id="ARC54" data-name="ARC">
      <path class="st1" d="M938.94,110.2c-.31.82.1,1.73.92,2.04.18.07.37.1.56.1"/>
    </g>
    <g id="ARC55" data-name="ARC">
      <path class="st1" d="M941.21,107.07c-.66,0-1.25.41-1.48,1.02"/>
    </g>
    <g id="HATCH">
      <path class="st6" d="M948.16,104.44c-.66,0-1.25.41-1.48,1.02l-.8,2.11c-.31.82.1,1.73.92,2.04.18.07.37.1.56.1h94.32c1.1,0,2.08-.68,2.47-1.7l14.25-37.57c.52-1.36-.17-2.88-1.53-3.4-.3-.11-.62-.17-.94-.17h-48.36c-.32,0-.64-.06-.94-.17-1.36-.52-2.05-2.04-1.53-3.4l10.25-27.02c.39-1.02,1.37-1.7,2.47-1.7h29.18c.42,0,.84.1,1.21.3l17.17,8.89c1.29.67,2.88.16,3.55-1.13.05-.09.09-.18.12-.28l4.14-10.91c.31-.82-.1-1.73-.92-2.04-.18-.07-.37-.1-.56-.1h-242.75c-.66,0-1.25.41-1.48,1.02l-.8,2.11c-.31.82.1,1.73.92,2.04.18.07.37.1.56.1h14.54c.32,0,.64.06.94.17,1.36.52,2.05,2.04,1.53,3.4l-24.5,64.59c-.39,1.02-1.37,1.7-2.47,1.7h-23.72c-.42,0-.84-.1-1.21-.3l-14.62-7.57c-1.29-.67-2.88-.16-3.55,1.13-.05.09-.09.18-.12.28l-3.1,8.16c-.52,1.36.17,2.88,1.53,3.4.3.11.62.17.94.17h84.05c1.1,0,2.08-.68,2.47-1.7l23.49-61.94c.23-.61.68-1.11,1.25-1.41l11.28-5.84c.37-.19.79-.3,1.21-.3h6.76c.32,0,.64.06.94.17,1.36.52,2.05,2.04,1.53,3.4l-24.29,64.04c-.52,1.36.17,2.88,1.53,3.4.3.11.62.17.94.17h36.54c1.1,0,2.08-.68,2.47-1.7l25.71-67.78c.39-1.02,1.37-1.7,2.47-1.7h8.16c.42,0,.84.1,1.21.3l6.4,3.32c1.19.62,1.73,2.02,1.25,3.28l-8.78,23.16c-.52,1.36.17,2.88,1.53,3.4.3.11.62.17.94.17h48.36c.32,0,.64.06.94.17,1.36.52,2.05,2.04,1.53,3.4l-10.25,27.02c-.39,1.02-1.37,1.7-2.47,1.7h-53.34Z"/>
    </g>
    <g id="LINE58" data-name="LINE">
      <line class="st0" x1="23.77" y1="261.65" x2="26.87" y2="253.48"/>
    </g>
    <g id="ARC56" data-name="ARC">
      <path class="st0" d="M23.77,261.65c-.52,1.36.17,2.88,1.53,3.4.3.11.62.17.94.17"/>
    </g>
    <g id="LINE59" data-name="LINE">
      <line class="st1" x1="83.44" y1="31.93" x2="326.19" y2="31.93"/>
    </g>
    <g id="LINE60" data-name="LINE">
      <line class="st1" x1="82.64" y1="37.21" x2="97.18" y2="37.21"/>
    </g>
    <g id="ARC57" data-name="ARC">
      <path class="st1" d="M81.16,35.06c-.31.82.1,1.73.92,2.04.18.07.37.1.56.1"/>
    </g>
    <g id="ARC58" data-name="ARC">
      <path class="st1" d="M99.65,40.78c.52-1.36-.17-2.88-1.53-3.4-.3-.11-.62-.17-.94-.17"/>
    </g>
    <g id="LINE61" data-name="LINE">
      <line class="st1" x1="272.3" y1="37.21" x2="301.48" y2="37.21"/>
    </g>
    <g id="LINE62" data-name="LINE">
      <line class="st1" x1="28.82" y1="112.34" x2="112.86" y2="112.34"/>
    </g>
    <g id="ARC59" data-name="ARC">
      <path class="st1" d="M26.35,108.77c-.52,1.36.17,2.88,1.53,3.4.3.11.62.17.94.17"/>
    </g>
    <g id="ARC60" data-name="ARC">
      <path class="st1" d="M112.86,112.34c1.1,0,2.08-.68,2.47-1.7"/>
    </g>
    <g id="LINE63" data-name="LINE">
      <line class="st1" x1="139.97" y1="112.34" x2="176.51" y2="112.34"/>
    </g>
    <g id="ARC61" data-name="ARC">
      <path class="st1" d="M176.51,112.34c1.1,0,2.08-.68,2.47-1.7"/>
    </g>
    <g id="ARC62" data-name="ARC">
      <path class="st1" d="M137.5,108.77c-.52,1.36.17,2.88,1.53,3.4.3.11.62.17.94.17"/>
    </g>
    <g id="LINE64" data-name="LINE">
      <line class="st1" x1="201.84" y1="112.34" x2="296.16" y2="112.34"/>
    </g>
    <g id="LINE65" data-name="LINE">
      <line class="st1" x1="99.65" y1="40.78" x2="75.15" y2="105.37"/>
    </g>
    <g id="LINE66" data-name="LINE">
      <line class="st1" x1="48.96" y1="107.07" x2="72.68" y2="107.07"/>
    </g>
    <g id="ARC63" data-name="ARC">
      <path class="st1" d="M72.68,107.07c1.1,0,2.08-.68,2.47-1.7"/>
    </g>
    <g id="LINE67" data-name="LINE">
      <line class="st1" x1="202.64" y1="107.07" x2="255.98" y2="107.07"/>
    </g>
    <g id="LINE68" data-name="LINE">
      <line class="st1" x1="138.82" y1="48.7" x2="115.33" y2="110.64"/>
    </g>
    <g id="ARC64" data-name="ARC">
      <path class="st1" d="M140.08,47.3c-.58.3-1.02.8-1.25,1.41"/>
    </g>
    <g id="LINE69" data-name="LINE">
      <line class="st1" x1="168.74" y1="42.1" x2="144.45" y2="106.14"/>
    </g>
    <g id="ARC65" data-name="ARC">
      <path class="st1" d="M161.8,44.73c.52-1.36-.17-2.88-1.53-3.4-.3-.11-.62-.17-.94-.17"/>
    </g>
    <g id="LINE70" data-name="LINE">
      <line class="st1" x1="211.63" y1="40.23" x2="185.92" y2="108.01"/>
    </g>
    <g id="ARC66" data-name="ARC">
      <path class="st1" d="M207.15,41.16c-1.1,0-2.08.68-2.47,1.7"/>
    </g>
    <g id="LINE71" data-name="LINE">
      <line class="st1" x1="224.19" y1="48.05" x2="215.4" y2="71.2"/>
    </g>
    <g id="ARC67" data-name="ARC">
      <path class="st1" d="M224.19,48.05c.47-1.25-.06-2.66-1.25-3.28"/>
    </g>
    <g id="LINE72" data-name="LINE">
      <line class="st1" x1="201.15" y1="108.12" x2="201.15" y2="108.12"/>
    </g>
    <g id="LINE73" data-name="LINE">
      <line class="st1" x1="269.84" y1="38.91" x2="259.59" y2="65.93"/>
    </g>
    <g id="ARC68" data-name="ARC">
      <path class="st1" d="M259.59,65.93c-.52,1.36.17,2.88,1.53,3.4.3.11.62.17.94.17"/>
    </g>
    <g id="ARC69" data-name="ARC">
      <path class="st1" d="M272.3,37.21c-1.1,0-2.08.68-2.47,1.7"/>
    </g>
    <g id="LINE74" data-name="LINE">
      <line class="st1" x1="217.87" y1="74.78" x2="266.23" y2="74.78"/>
    </g>
    <g id="ARC70" data-name="ARC">
      <path class="st1" d="M215.4,71.2c-.52,1.36.17,2.88,1.53,3.4.3.11.62.17.94.17"/>
    </g>
    <g id="LINE75" data-name="LINE">
      <line class="st1" x1="262.05" y1="69.5" x2="310.41" y2="69.5"/>
    </g>
    <g id="LINE76" data-name="LINE">
      <line class="st1" x1="327.67" y1="34.08" x2="323.53" y2="44.98"/>
    </g>
    <g id="ARC71" data-name="ARC">
      <path class="st1" d="M327.67,34.08c.31-.82-.1-1.73-.92-2.04-.18-.07-.37-.1-.56-.1"/>
    </g>
    <g id="LINE77" data-name="LINE">
      <line class="st1" x1="312.88" y1="73.07" x2="298.63" y2="110.64"/>
    </g>
    <g id="ARC72" data-name="ARC">
      <path class="st1" d="M312.88,73.07c.52-1.36-.17-2.88-1.53-3.4-.3-.11-.62-.17-.94-.17"/>
    </g>
    <g id="ARC73" data-name="ARC">
      <path class="st1" d="M296.16,112.34c1.1,0,2.08-.68,2.47-1.7"/>
    </g>
    <g id="LINE78" data-name="LINE">
      <line class="st1" x1="268.7" y1="78.35" x2="258.44" y2="105.37"/>
    </g>
    <g id="ARC74" data-name="ARC">
      <path class="st1" d="M255.98,107.07c1.1,0,2.08-.68,2.47-1.7"/>
    </g>
    <g id="ARC75" data-name="ARC">
      <path class="st1" d="M268.7,78.35c.52-1.36-.17-2.88-1.53-3.4-.3-.11-.62-.17-.94-.17"/>
    </g>
    <g id="LINE79" data-name="LINE">
      <line class="st1" x1="319.86" y1="46.39" x2="302.69" y2="37.5"/>
    </g>
    <g id="ARC76" data-name="ARC">
      <path class="st1" d="M302.69,37.5c-.37-.19-.79-.3-1.21-.3"/>
    </g>
    <g id="ARC77" data-name="ARC">
      <path class="st1" d="M319.86,46.39c1.29.67,2.88.16,3.55-1.13.05-.09.09-.18.12-.28"/>
    </g>
    <g id="LINE80" data-name="LINE">
      <line class="st1" x1="26.35" y1="108.77" x2="29.45" y2="100.61"/>
    </g>
    <g id="ARC78" data-name="ARC">
      <path class="st1" d="M33.12,99.21c-1.29-.67-2.88-.16-3.55,1.13-.05.09-.09.18-.12.28"/>
    </g>
    <g id="LINE81" data-name="LINE">
      <line class="st1" x1="33.12" y1="99.21" x2="47.74" y2="106.78"/>
    </g>
    <g id="ARC79" data-name="ARC">
      <path class="st1" d="M47.74,106.78c.37.19.79.3,1.21.3"/>
    </g>
    <g id="LINE82" data-name="LINE">
      <line class="st1" x1="152.57" y1="41.16" x2="159.33" y2="41.16"/>
    </g>
    <g id="LINE83" data-name="LINE">
      <line class="st1" x1="207.15" y1="41.16" x2="215.32" y2="41.16"/>
    </g>
    <g id="LINE84" data-name="LINE">
      <line class="st1" x1="222.93" y1="44.77" x2="216.53" y2="41.46"/>
    </g>
    <g id="ARC80" data-name="ARC">
      <path class="st1" d="M216.53,41.46c-.37-.19-.79-.3-1.21-.3"/>
    </g>
    <g id="LINE85" data-name="LINE">
      <line class="st1" x1="140.08" y1="47.3" x2="151.35" y2="41.46"/>
    </g>
    <g id="ARC81" data-name="ARC">
      <path class="st1" d="M152.57,41.16c-.42,0-.84.1-1.21.3"/>
    </g>
    <g id="LINE86" data-name="LINE">
      <line class="st1" x1="81.96" y1="32.95" x2="81.16" y2="35.06"/>
    </g>
    <g id="ARC82" data-name="ARC">
      <path class="st1" d="M83.44,31.93c-.66,0-1.25.41-1.48,1.02"/>
    </g>
    <g id="LINE87" data-name="LINE">
      <line class="st1" x1="201.16" y1="108.09" x2="200.36" y2="110.2"/>
    </g>
    <g id="ARC83" data-name="ARC">
      <path class="st1" d="M200.36,110.2c-.31.82.1,1.73.92,2.04.18.07.37.1.56.1"/>
    </g>
    <g id="ARC84" data-name="ARC">
      <path class="st1" d="M202.64,107.07c-.66,0-1.25.41-1.48,1.02"/>
    </g>
    <g id="HATCH1" data-name="HATCH">
      <path class="st6" d="M209.59,104.44c-.66,0-1.25.41-1.48,1.02l-.8,2.11c-.31.82.1,1.73.92,2.04.18.07.37.1.56.1h94.32c1.1,0,2.08-.68,2.47-1.7l14.25-37.57c.52-1.36-.17-2.88-1.53-3.4-.3-.11-.62-.17-.94-.17h-48.36c-.32,0-.64-.06-.94-.17-1.36-.52-2.05-2.04-1.53-3.4l10.25-27.02c.39-1.02,1.37-1.7,2.47-1.7h29.18c.42,0,.84.1,1.21.3l17.17,8.89c1.29.67,2.88.16,3.55-1.13.05-.09.09-.18.12-.28l4.14-10.91c.31-.82-.1-1.73-.92-2.04-.18-.07-.37-.1-.56-.1H90.38c-.66,0-1.25.41-1.48,1.02l-.8,2.11c-.31.82.1,1.73.92,2.04.18.07.37.1.56.1h14.54c.32,0,.64.06.94.17,1.36.52,2.05,2.04,1.53,3.4l-24.5,64.59c-.39,1.02-1.37,1.7-2.47,1.7h-23.72c-.42,0-.84-.1-1.21-.3l-14.62-7.57c-1.29-.67-2.88-.16-3.55,1.13-.05.09-.09.18-.12.28l-3.1,8.16c-.52,1.36.17,2.88,1.53,3.4.3.11.62.17.94.17h84.05c1.1,0,2.08-.68,2.47-1.7l23.49-61.94c.23-.61.68-1.11,1.25-1.41l11.28-5.84c.37-.19.79-.3,1.21-.3h6.76c.32,0,.64.06.94.17,1.36.52,2.05,2.04,1.53,3.4l-24.29,64.04c-.52,1.36.17,2.88,1.53,3.4.3.11.62.17.94.17h36.54c1.1,0,2.08-.68,2.47-1.7l25.71-67.78c.39-1.02,1.37-1.7,2.47-1.7h8.16c.42,0,.84.1,1.21.3l6.4,3.32c1.19.62,1.73,2.02,1.25,3.28l-8.78,23.16c-.52,1.36.17,2.88,1.53,3.4.3.11.62.17.94.17h48.36c.32,0,.64.06.94.17,1.36.52,2.05,2.04,1.53,3.4l-10.25,27.02c-.39,1.02-1.37,1.7-2.47,1.7h-53.34Z"/>
    </g>
  </g>
  <g id="_枠-1" data-name="枠-1">
    <g id="LWPOLYLINE">
      <rect class="st2" x="653.28" y="-12.35" width="554.12" height="387.41"/>
    </g>
    <g id="TEXT4" data-name="TEXT">
      <text class="st5" transform="translate(653.28 375.06)"><tspan x="0" y="0">!gentitle-ll</tspan></text>
    </g>
    <g id="LINE88" data-name="LINE">
      <line class="st2" x1="-92.04" y1="381.81" x2="-92.04" y2="381.81"/>
    </g>
    <g id="TEXT5" data-name="TEXT">
      <text class="st5" transform="translate(1207.4 375.06)"><tspan x="0" y="0">!gentitle-insert</tspan></text>
    </g>
    <g id="TEXT6" data-name="TEXT">
      <text class="st5" transform="translate(1214.15 -19.1)"><tspan x="0" y="0">!gentitle-max</tspan></text>
    </g>
    <g id="TEXT7" data-name="TEXT">
      <text class="st5" transform="translate(1207.4 -12.35)"><tspan x="0" y="0">!gentitle-ru</tspan></text>
    </g>
    <g id="LINE89" data-name="LINE">
      <line class="st2" x1="1214.15" y1="-19.1" x2="1214.15" y2="-19.1"/>
    </g>
    <g id="TEXT8" data-name="TEXT">
      <text class="st5" transform="translate(-85.29 375.06)"><tspan x="0" y="0">!gentitle-ll</tspan></text>
    </g>
    <g id="TEXT9" data-name="TEXT">
      <text class="st5" transform="translate(468.82 375.06)"><tspan x="0" y="0">!gentitle-insert</tspan></text>
    </g>
    <g id="TEXT10" data-name="TEXT">
      <text class="st5" transform="translate(475.57 -19.1)"><tspan x="0" y="0">!gentitle-max</tspan></text>
    </g>
    <g id="TEXT11" data-name="TEXT">
      <text class="st5" transform="translate(468.82 -12.35)"><tspan x="0" y="0">!gentitle-ru</tspan></text>
    </g>
    <g id="LINE90" data-name="LINE">
      <line class="st2" x1="475.57" y1="-19.1" x2="475.57" y2="-19.1"/>
    </g>
  </g>
</svg>